<svg xmlns="http://www.w3.org/2000/svg" viewBox="0 0 19.59 19.59"><defs><style>.cls-1{fill:#fff;}</style></defs><g id="Layer_2" data-name="Layer 2"><g id="socialIcon"><path class="cls-1" d="M15.92,0a3.53,3.53,0,0,1,2.59,1.08,3.53,3.53,0,0,1,1.08,2.59V15.92a3.69,3.69,0,0,1-3.67,3.67h-2.4V12h2.54l.38-3H13.52V7.15a1.64,1.64,0,0,1,.3-1.07A1.51,1.51,0,0,1,15,5.73l1.56,0V3.07A18.5,18.5,0,0,0,14.27,3,3.77,3.77,0,0,0,11.5,4a3.83,3.83,0,0,0-1,2.88V9H7.91v3h2.55v7.59H3.67a3.53,3.53,0,0,1-2.59-1.08A3.53,3.53,0,0,1,0,15.92V3.67A3.53,3.53,0,0,1,1.08,1.08,3.53,3.53,0,0,1,3.67,0Z"/></g></g></svg>