<svg xmlns="http://www.w3.org/2000/svg" viewBox="0 0 22 21.7"><defs><style>.cls-1{fill:#fff;}</style></defs><g id="Layer_2" data-name="Layer 2"><g id="socialIcon"><path class="cls-1" d="M14.5,21.4h-.1l-.1-.1V18.2a3.42,3.42,0,0,0-.4-1.8c2.3-.4,4.8-1.6,4.8-6.1a5.17,5.17,0,0,0-1.1-3.2A4.9,4.9,0,0,0,17.4,4l-.3-.3a1,1,0,0,0-.4-.1,5.53,5.53,0,0,0-3,1.2A20.22,20.22,0,0,0,11,4.5a12.65,12.65,0,0,0-2.8.3,5.73,5.73,0,0,0-3-1.1c-.2,0-.3.1-.4.1a.45.45,0,0,0-.3.3,4.9,4.9,0,0,0-.2,3.1,5.17,5.17,0,0,0-1.1,3.2c0,4.4,2.6,5.6,4.8,6.1a6.89,6.89,0,0,0-.3.8,2,2,0,0,1-.9.2,1.5,1.5,0,0,1-1.1-.4L5.6,17c-.1-.1-.1-.2-.2-.2l-.1-.1-.1-.1A2.84,2.84,0,0,0,3,15.2a1,1,0,0,0-1,.5c-.2.5.4.9.7,1.1a2.48,2.48,0,0,1,1,1.4,3.12,3.12,0,0,0,3.2,2h.7v1.4l-.1.1h0A11.64,11.64,0,0,1,0,11,11,11,0,1,1,14.5,21.4Z"/></g></g></svg>