<svg xmlns="http://www.w3.org/2000/svg" viewBox="0 0 20 20"><defs><style>.cls-1{fill:#fff;}</style></defs><g id="Layer_2" data-name="Layer 2"><g id="socialIcon"><path class="cls-1" d="M15.34,3.46h0a1.2,1.2,0,1,0,1.2,1.2,1.2,1.2,0,0,0-1.2-1.2Zm4.6,2.42a7.48,7.48,0,0,0-.46-2.43,4.86,4.86,0,0,0-1.16-1.77A4.71,4.71,0,0,0,16.55.53,7.49,7.49,0,0,0,14.12.06C13.06,0,12.72,0,10,0S6.94,0,5.88.06A7.49,7.49,0,0,0,3.45.53,4.84,4.84,0,0,0,1.68,1.68,4.71,4.71,0,0,0,.53,3.45,7.49,7.49,0,0,0,.06,5.88C0,6.94,0,7.28,0,10s0,3.06.06,4.12a7.49,7.49,0,0,0,.47,2.43,4.71,4.71,0,0,0,1.15,1.77,4.84,4.84,0,0,0,1.77,1.15,7.49,7.49,0,0,0,2.43.47C6.94,20,7.28,20,10,20s3.06,0,4.12-.06a7.49,7.49,0,0,0,2.43-.47,4.71,4.71,0,0,0,1.77-1.15,4.86,4.86,0,0,0,1.16-1.77,7.48,7.48,0,0,0,.46-2.43c0-1.06.06-1.4.06-4.12S20,6.94,19.94,5.88ZM18.14,14a5.66,5.66,0,0,1-.34,1.86A3.06,3.06,0,0,1,17.05,17a3.14,3.14,0,0,1-1.15.75A5.66,5.66,0,0,1,14,18.1c-1,0-1.37.06-4,.06s-3,0-4-.06a5.79,5.79,0,0,1-1.94-.3A3.31,3.31,0,0,1,3,17.05a2.92,2.92,0,0,1-.74-1.15,5.61,5.61,0,0,1-.4-1.9c0-1-.06-1.37-.06-4s0-3,.06-4a5.37,5.37,0,0,1,.35-1.9A3.09,3.09,0,0,1,3,3a3.12,3.12,0,0,1,1.1-.8A5.85,5.85,0,0,1,6,1.86c1,0,1.37-.06,4-.06s3,0,4,.06a5.66,5.66,0,0,1,1.86.34,3.09,3.09,0,0,1,1.19.8,3.08,3.08,0,0,1,.75,1.1A5.6,5.6,0,0,1,18.14,6c.05,1,.06,1.37.06,4S18.19,13,18.14,14ZM10,4.87A5.13,5.13,0,1,0,15.14,10,5.13,5.13,0,0,0,10,4.87Zm0,8.46A3.33,3.33,0,1,1,13.33,10h0A3.33,3.33,0,0,1,10,13.33Z"/></g></g></svg>