<svg xmlns="http://www.w3.org/2000/svg" viewBox="0 0 23.29 18.96"><defs><style>.cls-1{fill:#fff;}</style></defs><g id="Layer_2" data-name="Layer 2"><g id="socialIcon"><path class="cls-1" d="M23.29,2.27A10,10,0,0,1,20.55,3,4.85,4.85,0,0,0,22.65.37a9.45,9.45,0,0,1-3,1.17,4.77,4.77,0,0,0-8.15,4.35A13.55,13.55,0,0,1,1.62.9,4.83,4.83,0,0,0,1,3.31a4.77,4.77,0,0,0,2.12,4A4.73,4.73,0,0,1,.93,6.69v0A4.77,4.77,0,0,0,4.78,11.4a4.34,4.34,0,0,1-1.29.2,5.26,5.26,0,0,1-.89-.08,4.79,4.79,0,0,0,4.46,3.31,9.63,9.63,0,0,1-5.9,2A9.14,9.14,0,0,1,0,16.81,13.41,13.41,0,0,0,7.33,19,13.49,13.49,0,0,0,21,5.6a1,1,0,0,0,0-.24V4.74A9.6,9.6,0,0,0,23.29,2.27Z"/></g></g></svg>